{"asset":{"version":"2.0","generator":"pv2gltf","copyright":""},"samplers":[{"magFilter":9729,"minFilter":9986,"wrapS":10497,"wrapT":10497}],"materials":[{"name":"material_0","pbrMetallicRoughness":{"baseColorFactor":[0.800000011920929,0.800000011920929,0.800000011920929,1.0],"metallicFactor":0.5,"roughnessFactor":0.5},"doubleSided":true},{"name":"material_1","pbrMetallicRoughness":{"baseColorFactor":[0.0,0.0,0.0,1.0],"metallicFactor":0.5,"roughnessFactor":0.5},"doubleSided":true}],"buffers":[{"uri":"CR_Without-Ampule.bin","byteLength":106144},{"uri":"CR_Without-Ampule_2.bin","byteLength":840},{"uri":"CR_Without-Ampule_3.bin","byteLength":1943296},{"uri":"CR_Without-Ampule_4.bin","byteLength":2835904},{"uri":"CR_Without-Ampule_5.bin","byteLength":238784},{"uri":"CR_Without-Ampule_6.bin","byteLength":427200},{"uri":"CR_Without-Ampule_7.bin","byteLength":2680}],"bufferViews":[{"buffer":0,"byteOffset":0,"byteLength":61752,"byteStride":12,"target":34962},{"buffer":0,"byteOffset":61752,"byteLength":20584,"byteStride":8,"target":34962},{"buffer":0,"byteOffset":82336,"byteLength":23808,"target":34963},{"buffer":1,"byteOffset":0,"byteLength":576,"byteStride":12,"target":34962},{"buffer":1,"byteOffset":576,"byteLength":192,"byteStride":8,"target":34962},{"buffer":1,"byteOffset":768,"byteLength":72,"target":34963},{"buffer":2,"byteOffset":0,"byteLength":1099200,"byteStride":12,"target":34962},{"buffer":2,"byteOffset":1099200,"byteLength":366400,"byteStride":8,"target":34962},{"buffer":2,"byteOffset":1465600,"byteLength":477696,"target":34963},{"buffer":3,"byteOffset":0,"byteLength":516912,"byteStride":12,"target":34962},{"buffer":3,"byteOffset":516912,"byteLength":172304,"byteStride":8,"target":34962},{"buffer":3,"byteOffset":689216,"byteLength":222144,"target":34963},{"buffer":3,"byteOffset":911360,"byteLength":1087368,"byteStride":12,"target":34962},{"buffer":3,"byteOffset":1998728,"byteLength":362456,"byteStride":8,"target":34962},{"buffer":3,"byteOffset":2361184,"byteLength":474720,"target":34963},{"buffer":4,"byteOffset":0,"byteLength":142368,"byteStride":12,"target":34962},{"buffer":4,"byteOffset":142368,"byteLength":47456,"byteStride":8,"target":34962},{"buffer":4,"byteOffset":189824,"byteLength":48960,"target":34963},{"buffer":5,"byteOffset":0,"byteLength":292752,"byteStride":12,"target":34962},{"buffer":5,"byteOffset":292752,"byteLength":97584,"byteStride":8,"target":34962},{"buffer":5,"byteOffset":390336,"byteLength":36864,"target":34963},{"buffer":6,"byteOffset":0,"byteLength":1776,"byteStride":12,"target":34962},{"buffer":6,"byteOffset":1776,"byteLength":592,"byteStride":8,"target":34962},{"buffer":6,"byteOffset":2368,"byteLength":312,"target":34963}],"accessors":[{"bufferView":0,"byteOffset":0,"componentType":5126,"count":2573,"type":"VEC3","min":[-0.023006251081824304,-0.002041141502559185,-0.0020325849764049055],"max":[-0.013284925371408463,0.0020411484874784948,0.0020704532507807018]},{"bufferView":0,"byteOffset":30876,"componentType":5126,"count":2573,"type":"VEC3"},{"bufferView":1,"byteOffset":0,"componentType":5126,"count":2573,"type":"VEC2"},{"bufferView":2,"byteOffset":0,"componentType":5123,"count":11904,"type":"SCALAR"},{"bufferView":3,"byteOffset":0,"componentType":5126,"count":24,"type":"VEC3","min":[-0.03222004324197769,-0.01249999925494194,-0.0010000000474974514],"max":[0.023004738613963128,0.01249999925494194,0.0010000000474974514]},{"bufferView":3,"byteOffset":288,"componentType":5126,"count":24,"type":"VEC3"},{"bufferView":4,"byteOffset":0,"componentType":5126,"count":24,"type":"VEC2"},{"bufferView":5,"byteOffset":0,"componentType":5123,"count":36,"type":"SCALAR"},{"bufferView":6,"byteOffset":0,"componentType":5126,"count":45800,"type":"VEC3","min":[-0.017730355262756349,-0.009921686723828316,0.0008059125393629074],"max":[0.017787931486964227,0.009921686723828316,0.03635155037045479]},{"bufferView":6,"byteOffset":549600,"componentType":5126,"count":45800,"type":"VEC3"},{"bufferView":7,"byteOffset":0,"componentType":5126,"count":45800,"type":"VEC2"},{"bufferView":8,"byteOffset":0,"componentType":5123,"count":238848,"type":"SCALAR"},{"bufferView":9,"byteOffset":0,"componentType":5126,"count":21538,"type":"VEC3","min":[-0.029703812673687936,-0.006668119225651026,0.0030741733498871328],"max":[-0.021553661674261094,0.006617623846977949,0.018629059195518495]},{"bufferView":9,"byteOffset":258456,"componentType":5126,"count":21538,"type":"VEC3"},{"bufferView":10,"byteOffset":0,"componentType":5126,"count":21538,"type":"VEC2"},{"bufferView":11,"byteOffset":0,"componentType":5123,"count":111072,"type":"SCALAR"},{"bufferView":12,"byteOffset":0,"componentType":5126,"count":45307,"type":"VEC3","min":[-0.029113559052348138,-0.006573792546987534,0.000987859326414764],"max":[-0.02092571184039116,0.00654818769544363,0.017967142164707185]},{"bufferView":12,"byteOffset":543684,"componentType":5126,"count":45307,"type":"VEC3"},{"bufferView":13,"byteOffset":0,"componentType":5126,"count":45307,"type":"VEC2"},{"bufferView":14,"byteOffset":0,"componentType":5123,"count":237360,"type":"SCALAR"},{"bufferView":15,"byteOffset":0,"componentType":5126,"count":5932,"type":"VEC3","min":[-0.012119864113628865,-0.003148964373394847,-0.0002278051688335836],"max":[0.012119864113628865,0.0031489660032093527,0.022511519491672517]},{"bufferView":15,"byteOffset":71184,"componentType":5126,"count":5932,"type":"VEC3"},{"bufferView":16,"byteOffset":0,"componentType":5126,"count":5932,"type":"VEC2"},{"bufferView":17,"byteOffset":0,"componentType":5123,"count":24480,"type":"SCALAR"},{"bufferView":18,"byteOffset":0,"componentType":5126,"count":12198,"type":"VEC3","min":[-0.011995337903499604,-0.0027903085574507715,0.02240624651312828],"max":[0.011995337903499604,0.002869207412004471,0.022622575983405114]},{"bufferView":18,"byteOffset":146376,"componentType":5126,"count":12198,"type":"VEC3"},{"bufferView":19,"byteOffset":0,"componentType":5126,"count":12198,"type":"VEC2"},{"bufferView":20,"byteOffset":0,"componentType":5123,"count":18432,"type":"SCALAR"},{"bufferView":21,"byteOffset":0,"componentType":5126,"count":74,"type":"VEC3","min":[-0.013324631378054619,-0.009999999776482582,-0.0010999998776242138],"max":[0.009999999776482582,0.009999999776482582,6.47329578828959e-10]},{"bufferView":21,"byteOffset":888,"componentType":5126,"count":74,"type":"VEC3"},{"bufferView":22,"byteOffset":0,"componentType":5126,"count":74,"type":"VEC2"},{"bufferView":23,"byteOffset":0,"componentType":5123,"count":156,"type":"SCALAR"}],"meshes":[{"name":"din칙mico","primitives":[{"attributes":{"NORMAL":1,"POSITION":0,"TEXCOORD_0":2},"indices":3,"mode":4,"material":0}]},{"name":"est치tico","primitives":[{"attributes":{"NORMAL":5,"POSITION":4,"TEXCOORD_0":6},"indices":7,"mode":4,"material":0}]},{"name":"aros","primitives":[{"attributes":{"NORMAL":9,"POSITION":8,"TEXCOORD_0":10},"indices":11,"mode":4,"material":0}]},{"name":"caixa","primitives":[{"attributes":{"NORMAL":13,"POSITION":12,"TEXCOORD_0":14},"indices":15,"mode":4,"material":1},{"attributes":{"NORMAL":17,"POSITION":16,"TEXCOORD_0":18},"indices":19,"mode":4,"material":0}]},{"name":"suporte_madeira1","primitives":[{"attributes":{"NORMAL":21,"POSITION":20,"TEXCOORD_0":22},"indices":23,"mode":4,"material":0}]},{"name":"parafusos","primitives":[{"attributes":{"NORMAL":25,"POSITION":24,"TEXCOORD_0":26},"indices":27,"mode":4,"material":0}]},{"name":"placa_extra","primitives":[{"attributes":{"NORMAL":29,"POSITION":28,"TEXCOORD_0":30},"indices":31,"mode":4,"material":0}]}],"nodes":[{"name":"din칙mico","mesh":0,"matrix":[100.0,0.0,0.0,0.0,0.0,-0.000016292067955264304,-99.9999999999987,0.0,0.0,99.9999999999987,-0.000016292067955264304,0.0,0.0,1.798920869827247,-2.9308141057369057e-7,1.0],"extras":{"id":"41"}},{"name":"est치tico","mesh":1,"matrix":[100.0,0.0,0.0,0.0,0.0,-0.000016292067955264304,-99.9999999999987,0.0,0.0,99.9999999999987,-0.000016292067955264304,0.0,0.0,0.0,0.0,1.0],"extras":{"id":"43"}},{"name":"aros","mesh":2,"matrix":[100.0,0.0,0.0,0.0,0.0,-0.000016292067955264307,-99.99999999999872,0.0,0.0,99.99999999999872,-0.000016292067955264307,0.0,0.0,0.0,0.0,1.0],"extras":{"id":"42"}},{"name":"caixa","mesh":3,"matrix":[100.0,0.0,0.0,0.0,0.0,-0.000016292067955264307,-99.99999999999872,0.0,0.0,99.99999999999872,-0.000016292067955264307,0.0,0.0,0.0,0.0,1.0],"extras":{"id":"44"}},{"name":"suporte_madeira1","mesh":4,"matrix":[100.0,0.0,0.0,0.0,0.0,-0.000016292067955264307,-99.99999999999872,0.0,0.0,99.99999999999872,-0.000016292067955264307,0.0,0.0,0.0,0.0,1.0],"extras":{"id":"45"}},{"name":"parafusos","mesh":5,"matrix":[100.0,0.0,0.0,0.0,0.0,-0.00001629206795526431,-99.99999999999874,0.0,0.0,99.99999999999874,-0.00001629206795526431,0.0,0.0,0.0,0.0,1.0],"extras":{"id":"47"}},{"name":"placa_extra","mesh":6,"matrix":[0.0000010073394514843027,-5.173612013459042,8.428883849744758e-7,0.0,-0.0000025739593755496474,-0.000003121128991912979,-19.157350063323564,0.0,5.173612013459061,0.0000010073393382347733,-6.951206846206677e-7,0.0,1.2186429500579835,1.0554665327071847,-2.718469786354763e-7,1.0],"extras":{"id":"48"}},{"name":"CR_Without-Ampule","children":[0,1,2,3,4,5,6]}],"scenes":[{"nodes":[7]}],"scene":0}