{"asset":{"version":"2.0","generator":"pv2gltf","copyright":""},"samplers":[{"magFilter":9729,"minFilter":9986,"wrapS":10497,"wrapT":10497}],"materials":[{"name":"material_0","pbrMetallicRoughness":{"baseColorFactor":[0.800000011920929,0.800000011920929,0.800000011920929,1.0],"metallicFactor":0.5,"roughnessFactor":0.5},"doubleSided":true},{"name":"material_1","pbrMetallicRoughness":{"baseColorFactor":[0.800000011920929,0.800000011920929,0.800000011920929,1.0],"metallicFactor":0.5,"roughnessFactor":0.5},"doubleSided":true},{"name":"material_2","pbrMetallicRoughness":{"baseColorFactor":[0.800000011920929,0.800000011920929,0.800000011920929,1.0],"metallicFactor":0.5,"roughnessFactor":0.5},"doubleSided":true},{"name":"material_3","pbrMetallicRoughness":{"baseColorFactor":[0.44945257902145388,0.44945257902145388,0.44945257902145388,1.0],"metallicFactor":0.5,"roughnessFactor":0.5},"doubleSided":true},{"name":"material_4","pbrMetallicRoughness":{"baseColorFactor":[0.0,0.0,0.0,1.0],"metallicFactor":0.5,"roughnessFactor":0.5},"doubleSided":true}],"buffers":[{"uri":"CR_Without-Yellow-and-Arrow_H.bin","byteLength":106144},{"uri":"CR_Without-Yellow-and-Arrow_H_2.bin","byteLength":412992},{"uri":"CR_Without-Yellow-and-Arrow_H_3.bin","byteLength":28160},{"uri":"CR_Without-Yellow-and-Arrow_H_4.bin","byteLength":411456},{"uri":"CR_Without-Yellow-and-Arrow_H_5.bin","byteLength":382720},{"uri":"CR_Without-Yellow-and-Arrow_H_6.bin","byteLength":840},{"uri":"CR_Without-Yellow-and-Arrow_H_7.bin","byteLength":1943296},{"uri":"CR_Without-Yellow-and-Arrow_H_8.bin","byteLength":2835904},{"uri":"CR_Without-Yellow-and-Arrow_H_9.bin","byteLength":238784},{"uri":"CR_Without-Yellow-and-Arrow_H_10.bin","byteLength":427200},{"uri":"CR_Without-Yellow-and-Arrow_H_11.bin","byteLength":2680}],"bufferViews":[{"buffer":0,"byteOffset":0,"byteLength":61752,"byteStride":12,"target":34962},{"buffer":0,"byteOffset":61752,"byteLength":20584,"byteStride":8,"target":34962},{"buffer":0,"byteOffset":82336,"byteLength":23808,"target":34963},{"buffer":1,"byteOffset":0,"byteLength":227088,"byteStride":12,"target":34962},{"buffer":1,"byteOffset":227088,"byteLength":75696,"byteStride":8,"target":34962},{"buffer":1,"byteOffset":302784,"byteLength":110208,"target":34963},{"buffer":2,"byteOffset":0,"byteLength":16584,"byteStride":12,"target":34962},{"buffer":2,"byteOffset":16584,"byteLength":5528,"byteStride":8,"target":34962},{"buffer":2,"byteOffset":22112,"byteLength":6048,"target":34963},{"buffer":3,"byteOffset":0,"byteLength":41760,"byteStride":12,"target":34962},{"buffer":3,"byteOffset":41760,"byteLength":13920,"byteStride":8,"target":34962},{"buffer":3,"byteOffset":55680,"byteLength":16560,"target":34963},{"buffer":3,"byteOffset":72240,"byteLength":12840,"byteStride":12,"target":34962},{"buffer":3,"byteOffset":85080,"byteLength":4280,"byteStride":8,"target":34962},{"buffer":3,"byteOffset":89360,"byteLength":4752,"target":34963},{"buffer":3,"byteOffset":94112,"byteLength":188040,"byteStride":12,"target":34962},{"buffer":3,"byteOffset":282152,"byteLength":62680,"byteStride":8,"target":34962},{"buffer":3,"byteOffset":344832,"byteLength":66624,"target":34963},{"buffer":4,"byteOffset":0,"byteLength":262272,"byteStride":12,"target":34962},{"buffer":4,"byteOffset":262272,"byteLength":87424,"byteStride":8,"target":34962},{"buffer":4,"byteOffset":349696,"byteLength":33024,"target":34963},{"buffer":5,"byteOffset":0,"byteLength":576,"byteStride":12,"target":34962},{"buffer":5,"byteOffset":576,"byteLength":192,"byteStride":8,"target":34962},{"buffer":5,"byteOffset":768,"byteLength":72,"target":34963},{"buffer":6,"byteOffset":0,"byteLength":1099200,"byteStride":12,"target":34962},{"buffer":6,"byteOffset":1099200,"byteLength":366400,"byteStride":8,"target":34962},{"buffer":6,"byteOffset":1465600,"byteLength":477696,"target":34963},{"buffer":7,"byteOffset":0,"byteLength":516912,"byteStride":12,"target":34962},{"buffer":7,"byteOffset":516912,"byteLength":172304,"byteStride":8,"target":34962},{"buffer":7,"byteOffset":689216,"byteLength":222144,"target":34963},{"buffer":7,"byteOffset":911360,"byteLength":1087368,"byteStride":12,"target":34962},{"buffer":7,"byteOffset":1998728,"byteLength":362456,"byteStride":8,"target":34962},{"buffer":7,"byteOffset":2361184,"byteLength":474720,"target":34963},{"buffer":8,"byteOffset":0,"byteLength":142368,"byteStride":12,"target":34962},{"buffer":8,"byteOffset":142368,"byteLength":47456,"byteStride":8,"target":34962},{"buffer":8,"byteOffset":189824,"byteLength":48960,"target":34963},{"buffer":9,"byteOffset":0,"byteLength":292752,"byteStride":12,"target":34962},{"buffer":9,"byteOffset":292752,"byteLength":97584,"byteStride":8,"target":34962},{"buffer":9,"byteOffset":390336,"byteLength":36864,"target":34963},{"buffer":10,"byteOffset":0,"byteLength":1776,"byteStride":12,"target":34962},{"buffer":10,"byteOffset":1776,"byteLength":592,"byteStride":8,"target":34962},{"buffer":10,"byteOffset":2368,"byteLength":312,"target":34963}],"accessors":[{"bufferView":0,"byteOffset":0,"componentType":5126,"count":2573,"type":"VEC3","min":[-0.023006251081824304,-0.002041141502559185,-0.0020325849764049055],"max":[-0.013284925371408463,0.0020411484874784948,0.0020704532507807018]},{"bufferView":0,"byteOffset":30876,"componentType":5126,"count":2573,"type":"VEC3"},{"bufferView":1,"byteOffset":0,"componentType":5126,"count":2573,"type":"VEC2"},{"bufferView":2,"byteOffset":0,"componentType":5123,"count":11904,"type":"SCALAR"},{"bufferView":3,"byteOffset":0,"componentType":5126,"count":9462,"type":"VEC3","min":[-0.013284926302731038,-0.008536811918020249,-0.008607338182628155],"max":[0.01791384629905224,0.008536814711987973,0.008645200170576573]},{"bufferView":3,"byteOffset":113544,"componentType":5126,"count":9462,"type":"VEC3"},{"bufferView":4,"byteOffset":0,"componentType":5126,"count":9462,"type":"VEC2"},{"bufferView":5,"byteOffset":0,"componentType":5123,"count":55104,"type":"SCALAR"},{"bufferView":6,"byteOffset":0,"componentType":5126,"count":691,"type":"VEC3","min":[-0.016876298934221269,-0.0008935001096688211,-0.0010353809921070934],"max":[-0.007110356353223324,0.0011942769633606077,0.0010525922989472747]},{"bufferView":6,"byteOffset":8292,"componentType":5126,"count":691,"type":"VEC3"},{"bufferView":7,"byteOffset":0,"componentType":5126,"count":691,"type":"VEC2"},{"bufferView":8,"byteOffset":0,"componentType":5123,"count":3024,"type":"SCALAR"},{"bufferView":9,"byteOffset":0,"componentType":5126,"count":1740,"type":"VEC3","min":[-0.005527836736291647,-0.0008169441716745496,-0.00183573376853019],"max":[-0.005129835102707148,0.0011177209671586753,-0.000400454067857936]},{"bufferView":9,"byteOffset":20880,"componentType":5126,"count":1740,"type":"VEC3"},{"bufferView":10,"byteOffset":0,"componentType":5126,"count":1740,"type":"VEC2"},{"bufferView":11,"byteOffset":0,"componentType":5123,"count":8280,"type":"SCALAR"},{"bufferView":12,"byteOffset":0,"componentType":5126,"count":535,"type":"VEC3","min":[-0.005994229577481747,-0.0003306036815047264,-0.0015364076243713499],"max":[-0.00480911647900939,0.0006297018262557685,0.0008532798965461552]},{"bufferView":12,"byteOffset":6420,"componentType":5126,"count":535,"type":"VEC3"},{"bufferView":13,"byteOffset":0,"componentType":5126,"count":535,"type":"VEC2"},{"bufferView":14,"byteOffset":0,"componentType":5123,"count":2376,"type":"SCALAR"},{"bufferView":15,"byteOffset":0,"componentType":5126,"count":7835,"type":"VEC3","min":[-0.007270459551364183,-0.0007168606389313936,-0.002068581059575081],"max":[-0.004604807589203119,0.0010064399102702737,0.0008532798965461552]},{"bufferView":15,"byteOffset":94020,"componentType":5126,"count":7835,"type":"VEC3"},{"bufferView":16,"byteOffset":0,"componentType":5126,"count":7835,"type":"VEC2"},{"bufferView":17,"byteOffset":0,"componentType":5123,"count":33312,"type":"SCALAR"},{"bufferView":18,"byteOffset":0,"componentType":5126,"count":10928,"type":"VEC3","min":[-0.014059622772037983,-0.0006280243978835642,-0.000525695679243654],"max":[-0.007081205025315285,0.0008187851635739207,0.0004040780186187476]},{"bufferView":18,"byteOffset":131136,"componentType":5126,"count":10928,"type":"VEC3"},{"bufferView":19,"byteOffset":0,"componentType":5126,"count":10928,"type":"VEC2"},{"bufferView":20,"byteOffset":0,"componentType":5123,"count":16512,"type":"SCALAR"},{"bufferView":21,"byteOffset":0,"componentType":5126,"count":24,"type":"VEC3","min":[-0.03222004324197769,-0.01249999925494194,-0.0010000000474974514],"max":[0.023004738613963128,0.01249999925494194,0.0010000000474974514]},{"bufferView":21,"byteOffset":288,"componentType":5126,"count":24,"type":"VEC3"},{"bufferView":22,"byteOffset":0,"componentType":5126,"count":24,"type":"VEC2"},{"bufferView":23,"byteOffset":0,"componentType":5123,"count":36,"type":"SCALAR"},{"bufferView":24,"byteOffset":0,"componentType":5126,"count":45800,"type":"VEC3","min":[-0.017730355262756349,-0.009921686723828316,0.0008059125393629074],"max":[0.017787931486964227,0.009921686723828316,0.03635155037045479]},{"bufferView":24,"byteOffset":549600,"componentType":5126,"count":45800,"type":"VEC3"},{"bufferView":25,"byteOffset":0,"componentType":5126,"count":45800,"type":"VEC2"},{"bufferView":26,"byteOffset":0,"componentType":5123,"count":238848,"type":"SCALAR"},{"bufferView":27,"byteOffset":0,"componentType":5126,"count":21538,"type":"VEC3","min":[-0.029703812673687936,-0.006668119225651026,0.0030741733498871328],"max":[-0.021553661674261094,0.006617623846977949,0.018629059195518495]},{"bufferView":27,"byteOffset":258456,"componentType":5126,"count":21538,"type":"VEC3"},{"bufferView":28,"byteOffset":0,"componentType":5126,"count":21538,"type":"VEC2"},{"bufferView":29,"byteOffset":0,"componentType":5123,"count":111072,"type":"SCALAR"},{"bufferView":30,"byteOffset":0,"componentType":5126,"count":45307,"type":"VEC3","min":[-0.029113559052348138,-0.006573792546987534,0.000987859326414764],"max":[-0.02092571184039116,0.00654818769544363,0.017967142164707185]},{"bufferView":30,"byteOffset":543684,"componentType":5126,"count":45307,"type":"VEC3"},{"bufferView":31,"byteOffset":0,"componentType":5126,"count":45307,"type":"VEC2"},{"bufferView":32,"byteOffset":0,"componentType":5123,"count":237360,"type":"SCALAR"},{"bufferView":33,"byteOffset":0,"componentType":5126,"count":5932,"type":"VEC3","min":[-0.012119864113628865,-0.003148964373394847,-0.0002278051688335836],"max":[0.012119864113628865,0.0031489660032093527,0.022511519491672517]},{"bufferView":33,"byteOffset":71184,"componentType":5126,"count":5932,"type":"VEC3"},{"bufferView":34,"byteOffset":0,"componentType":5126,"count":5932,"type":"VEC2"},{"bufferView":35,"byteOffset":0,"componentType":5123,"count":24480,"type":"SCALAR"},{"bufferView":36,"byteOffset":0,"componentType":5126,"count":12198,"type":"VEC3","min":[-0.011995337903499604,-0.0027903085574507715,0.02240624651312828],"max":[0.011995337903499604,0.002869207412004471,0.022622575983405114]},{"bufferView":36,"byteOffset":146376,"componentType":5126,"count":12198,"type":"VEC3"},{"bufferView":37,"byteOffset":0,"componentType":5126,"count":12198,"type":"VEC2"},{"bufferView":38,"byteOffset":0,"componentType":5123,"count":18432,"type":"SCALAR"},{"bufferView":39,"byteOffset":0,"componentType":5126,"count":74,"type":"VEC3","min":[-0.013324631378054619,-0.009999999776482582,-0.0010999998776242138],"max":[0.009999999776482582,0.009999999776482582,6.47329578828959e-10]},{"bufferView":39,"byteOffset":888,"componentType":5126,"count":74,"type":"VEC3"},{"bufferView":40,"byteOffset":0,"componentType":5126,"count":74,"type":"VEC2"},{"bufferView":41,"byteOffset":0,"componentType":5123,"count":156,"type":"SCALAR"}],"meshes":[{"name":"din칙mico","primitives":[{"attributes":{"NORMAL":1,"POSITION":0,"TEXCOORD_0":2},"indices":3,"mode":4,"material":0}]},{"name":"vidro.001","primitives":[{"attributes":{"NORMAL":5,"POSITION":4,"TEXCOORD_0":6},"indices":7,"mode":4,"material":1}]},{"name":"vidro_dentro","primitives":[{"attributes":{"NORMAL":9,"POSITION":8,"TEXCOORD_0":10},"indices":11,"mode":4,"material":2}]},{"name":"Cylinder","primitives":[{"attributes":{"NORMAL":13,"POSITION":12,"TEXCOORD_0":14},"indices":15,"mode":4,"material":2},{"attributes":{"NORMAL":17,"POSITION":16,"TEXCOORD_0":18},"indices":19,"mode":4,"material":3},{"attributes":{"NORMAL":21,"POSITION":20,"TEXCOORD_0":22},"indices":23,"mode":4,"material":0}]},{"name":"cabo","primitives":[{"attributes":{"NORMAL":25,"POSITION":24,"TEXCOORD_0":26},"indices":27,"mode":4,"material":4}]},{"name":"est치tico","primitives":[{"attributes":{"NORMAL":29,"POSITION":28,"TEXCOORD_0":30},"indices":31,"mode":4,"material":0}]},{"name":"aros","primitives":[{"attributes":{"NORMAL":33,"POSITION":32,"TEXCOORD_0":34},"indices":35,"mode":4,"material":0}]},{"name":"caixa","primitives":[{"attributes":{"NORMAL":37,"POSITION":36,"TEXCOORD_0":38},"indices":39,"mode":4,"material":4},{"attributes":{"NORMAL":41,"POSITION":40,"TEXCOORD_0":42},"indices":43,"mode":4,"material":0}]},{"name":"suporte_madeira1","primitives":[{"attributes":{"NORMAL":45,"POSITION":44,"TEXCOORD_0":46},"indices":47,"mode":4,"material":0}]},{"name":"parafusos","primitives":[{"attributes":{"NORMAL":49,"POSITION":48,"TEXCOORD_0":50},"indices":51,"mode":4,"material":0}]},{"name":"placa_extra","primitives":[{"attributes":{"NORMAL":53,"POSITION":52,"TEXCOORD_0":54},"indices":55,"mode":4,"material":0}]}],"nodes":[{"name":"din칙mico","mesh":0,"matrix":[100.0,0.0,0.0,0.0,0.0,-0.000016292067955264304,-99.9999999999987,0.0,0.0,99.9999999999987,-0.000016292067955264304,0.0,0.0,1.798920869827247,-2.9308141057369057e-7,1.0],"extras":{"id":"41"}},{"name":"vidro.001","mesh":1,"matrix":[100.0,0.0,0.0,0.0,0.0,-0.000016292067955264307,-99.99999999999872,0.0,0.0,99.99999999999872,-0.000016292067955264307,0.0,0.0,1.798920869827247,-2.9308141057369057e-7,1.0],"extras":{"id":"47"}},{"name":"vidro_dentro","mesh":2,"matrix":[100.0,0.0,0.0,0.0,0.0,-0.000016292067955264307,-99.99999999999872,0.0,0.0,99.99999999999872,-0.000016292067955264307,0.0,0.0,1.798920869827247,-2.9308141057369057e-7,1.0],"extras":{"id":"50"}},{"name":"Cylinder","mesh":3,"matrix":[100.0,0.0,0.0,0.0,0.0,-0.00001629206795526431,-99.99999999999874,0.0,0.0,99.99999999999874,-0.00001629206795526431,0.0,0.0,1.798920869827247,-2.9308141057369057e-7,1.0],"extras":{"id":"46"}},{"name":"cabo","mesh":4,"matrix":[100.0,0.0,0.0,0.0,0.0,-0.00001629206795526431,-99.99999999999874,0.0,0.0,99.99999999999874,-0.00001629206795526431,0.0,0.0,1.798920869827247,-2.9308141057369057e-7,1.0],"extras":{"id":"48"}},{"name":"est치tico","mesh":5,"matrix":[100.0,0.0,0.0,0.0,0.0,-0.000016292067955264304,-99.9999999999987,0.0,0.0,99.9999999999987,-0.000016292067955264304,0.0,0.0,0.0,0.0,1.0],"extras":{"id":"43"}},{"name":"aros","mesh":6,"matrix":[100.0,0.0,0.0,0.0,0.0,-0.000016292067955264307,-99.99999999999872,0.0,0.0,99.99999999999872,-0.000016292067955264307,0.0,0.0,0.0,0.0,1.0],"extras":{"id":"42"}},{"name":"caixa","mesh":7,"matrix":[100.0,0.0,0.0,0.0,0.0,-0.000016292067955264307,-99.99999999999872,0.0,0.0,99.99999999999872,-0.000016292067955264307,0.0,0.0,0.0,0.0,1.0],"extras":{"id":"44"}},{"name":"suporte_madeira1","mesh":8,"matrix":[100.0,0.0,0.0,0.0,0.0,-0.000016292067955264307,-99.99999999999872,0.0,0.0,99.99999999999872,-0.000016292067955264307,0.0,0.0,0.0,0.0,1.0],"extras":{"id":"45"}},{"name":"parafusos","mesh":9,"matrix":[100.0,0.0,0.0,0.0,0.0,-0.00001629206795526431,-99.99999999999874,0.0,0.0,99.99999999999874,-0.00001629206795526431,0.0,0.0,0.0,0.0,1.0],"extras":{"id":"51"}},{"name":"placa_extra","mesh":10,"matrix":[0.0000010073394514843027,-5.173612013459042,8.428883849744758e-7,0.0,-0.0000025739593755496474,-0.000003121128991912979,-19.157350063323564,0.0,5.173612013459061,0.0000010073393382347733,-6.951206846206677e-7,0.0,1.2186429500579835,1.0554665327071847,-2.718469786354763e-7,1.0],"extras":{"id":"52"}},{"name":"CR_Without-Yellow-and-Arrow_H","children":[0,1,2,3,4,5,6,7,8,9,10]}],"scenes":[{"nodes":[11]}],"scene":0}